<svg version="1.1" style="font-family: Roboto; font-size: 12px;" xmlns="http://www.w3.org/2000/svg" width="650" height="400" viewBox="0 0 650 400" aria-hidden="false" aria-label="Interactive chart"><defs aria-hidden="true"><clipPath ><rect x="0" y="0" width="596" height="338" fill="none"></rect></clipPath><clipPath ><rect x="0" y="0" width="596" height="338" fill="none"></rect></clipPath></defs><rect fill="#ffffff" x="0" y="0" width="650" height="400" rx="0" ry="0" aria-hidden="true"></rect><rect fill="none" x="44" y="47" width="596" height="338" aria-hidden="true"></rect><g data-z-index="0" aria-hidden="true"></g><rect fill="none" data-z-index="1" x="44" y="47" width="596" height="338" aria-hidden="true"></rect><g data-z-index="1" aria-hidden="true"><path fill="none" stroke-dasharray="none" data-z-index="1" d="M 162.5 47 L 162.5 385" opacity="1"></path><path fill="none" stroke-dasharray="none" data-z-index="1" d="M 281.5 47 L 281.5 385" opacity="1"></path><path fill="none" stroke-dasharray="none" data-z-index="1" d="M 401.5 47 L 401.5 385" opacity="1"></path><path fill="none" stroke-dasharray="none" data-z-index="1" d="M 520.5 47 L 520.5 385" opacity="1"></path><path fill="none" stroke-dasharray="none" data-z-index="1" d="M 639.5 47 L 639.5 385" opacity="1"></path><path fill="none" stroke-dasharray="none" data-z-index="1" d="M 43.5 47 L 43.5 385" opacity="1"></path></g><g data-z-index="1" aria-hidden="true"><path fill="none" stroke="#e6e6e6" stroke-width="1" stroke-dasharray="none" data-z-index="1" d="M 44 317.5 L 640 317.5" opacity="1"></path><path fill="none" stroke="#e6e6e6" stroke-width="1" stroke-dasharray="none" data-z-index="1" d="M 44 250.5 L 640 250.5" opacity="1"></path><path fill="none" stroke="#e6e6e6" stroke-width="1" stroke-dasharray="none" data-z-index="1" d="M 44 182.5 L 640 182.5" opacity="1"></path><path fill="none" stroke="#e6e6e6" stroke-width="1" stroke-dasharray="none" data-z-index="1" d="M 44 115.5 L 640 115.5" opacity="1"></path><path fill="none" stroke="#e6e6e6" stroke-width="1" stroke-dasharray="none" data-z-index="1" d="M 44 385.5 L 640 385.5" opacity="1"></path><path fill="none" stroke="#e6e6e6" stroke-width="1" stroke-dasharray="none" data-z-index="1" d="M 44 46.5 L 640 46.5" opacity="1"></path></g><g data-z-index="2" aria-hidden="true"><path fill="none" stroke="#ccd6eb" stroke-width="1" data-z-index="7" d="M 44 385.5 L 640 385.5"></path></g><g data-z-index="2" aria-hidden="true"><path fill="none" data-z-index="7" d="M 44 47 L 44 385"></path></g><g data-z-index="3" aria-hidden="false"><g data-z-index="0.1" opacity="1" transform="translate(44,47) scale(1 1)" clip-path="url(#highcharts-2to3p2o-774-)" aria-hidden="true"><path fill="none" d="M 59.6 270.4 C 59.6 270.4 131.12000000000003 217.67199999999997 178.8 189.28 C 226.48000000000002 160.888 250.32 150.072 298 128.44 C 345.68 106.80799999999998 369.52 95.99200000000002 417.2 81.12 C 464.87999999999994 66.24800000000002 536.4 54.079999999999984 536.4 54.079999999999984" data-z-index="1" stroke="#616161" stroke-width="2" stroke-linejoin="round" stroke-linecap="round"></path><path fill="none" d="M 59.6 270.4 C 59.6 270.4 131.12000000000003 217.67199999999997 178.8 189.28 C 226.48000000000002 160.888 250.32 150.072 298 128.44 C 345.68 106.80799999999998 369.52 95.99200000000002 417.2 81.12 C 464.87999999999994 66.24800000000002 536.4 54.079999999999984 536.4 54.079999999999984" data-z-index="2" stroke-linecap="round" stroke-linejoin="round" stroke="rgba(192,192,192,0.0001)" stroke-width="22" style="cursor: pointer;"></path></g><g data-z-index="0.1" opacity="1" transform="translate(44,47) scale(1 1)" clip-path="none" style="cursor: pointer; outline: none;" aria-hidden="false" role="region" tabindex="-1" aria-label=", line 1 of 2 with 5 data points."><path fill="#616161" d="M 536 54.079999999999984 A 0 0 0 1 1 536 54.079999999999984 Z" data-z-index="-1" fill-opacity="0.25" visibility="hidden"></path><path fill="#616161" d="M 59 274.4 A 4 4 0 1 1 59.00399999933334 274.39999800000015 Z" opacity="0" tabindex="-1" style="outline: none;" role="img" aria-label="x, 0, 20. ."></path><path fill="#616161" d="M 178 193.28 A 4 4 0 1 1 178.00399999933333 193.27999800000018 Z" opacity="0" tabindex="-1" style="outline: none;" role="img" aria-label="x, 1, 44. ."></path><path fill="#616161" d="M 298 132.44 A 4 4 0 1 1 298.00399999933336 132.43999800000017 Z" opacity="0" tabindex="-1" style="outline: none;" role="img" aria-label="x, 2, 62. ."></path><path fill="#616161" d="M 417 85.12 A 4 4 0 1 1 417.00399999933336 85.11999800000017 Z" opacity="0" tabindex="-1" style="outline: none;" role="img" aria-label="x, 3, 76. ."></path><path fill="#616161" d="M 536 58.079999999999984 A 4 4 0 1 1 536.0039999993334 58.07999800000015 Z" opacity="0" tabindex="-1" style="outline: none;" role="img" aria-label="x, 4, 84. ." stroke-width="0.00015790535835003006"></path></g><g data-z-index="0.1" opacity="1" transform="translate(44,47) scale(1 1)" clip-path="url(#highcharts-2to3p2o-774-)" aria-hidden="true"><path fill="none" d="M 59.6 253.5 C 59.6 253.5 131.12000000000003 172.37999999999997 178.8 135.2 C 226.48000000000002 98.01999999999998 250.32 87.88000000000002 298 67.60000000000002 C 345.68 47.32000000000002 369.52 44.61600000000003 417.2 33.80000000000001 C 464.87999999999994 22.98400000000001 536.4 13.519999999999982 536.4 13.519999999999982" data-z-index="1" stroke="#ff7a50" stroke-width="2" stroke-linejoin="round" stroke-linecap="round"></path><path fill="none" d="M 59.6 253.5 C 59.6 253.5 131.12000000000003 172.37999999999997 178.8 135.2 C 226.48000000000002 98.01999999999998 250.32 87.88000000000002 298 67.60000000000002 C 345.68 47.32000000000002 369.52 44.61600000000003 417.2 33.80000000000001 C 464.87999999999994 22.98400000000001 536.4 13.519999999999982 536.4 13.519999999999982" data-z-index="2" stroke-linecap="round" stroke-linejoin="round" stroke="rgba(192,192,192,0.0001)" stroke-width="22" style="cursor: pointer;"></path></g><g data-z-index="0.1" opacity="1" transform="translate(44,47) scale(1 1)" clip-path="none" style="cursor: pointer; outline: none;" aria-hidden="false" role="region" tabindex="-1" aria-label=", line 2 of 2 with 5 data points."><path fill="#ff7a50" d="M 536 13.519999999999982 A 0 0 0 1 1 536 13.519999999999982 Z" data-z-index="-1" fill-opacity="0.25" visibility="hidden"></path><path fill="#ff7a50" d="M 59 249.5 L 63 253.5 L 59 257.5 L 55 253.5 Z" opacity="0" tabindex="-1" style="outline: none;" role="img" aria-label="x, 0, 25. ."></path><path fill="#ff7a50" d="M 178 131.2 L 182 135.2 L 178 139.2 L 174 135.2 Z" opacity="0" tabindex="-1" style="outline: none;" role="img" aria-label="x, 1, 60. ."></path><path fill="#ff7a50" d="M 298 63.60000000000002 L 302 67.60000000000002 L 298 71.60000000000002 L 294 67.60000000000002 Z" opacity="0" tabindex="-1" style="outline: none;" role="img" aria-label="x, 2, 80. ."></path><path fill="#ff7a50" d="M 417 29.80000000000001 L 421 33.80000000000001 L 417 37.80000000000001 L 413 33.80000000000001 Z" opacity="0" tabindex="-1" style="outline: none;" role="img" aria-label="x, 3, 90. ."></path><path fill="#ff7a50" d="M 536 9.519999999999982 L 540 13.519999999999982 L 536 17.519999999999982 L 532 13.519999999999982 Z" opacity="0" tabindex="-1" style="outline: none;" role="img" aria-label="x, 4, 96. ." stroke-width="0.00015790535835003006"></path></g></g><g data-z-index="3" aria-hidden="true"><g stroke-linecap="round" style="cursor: pointer;" transform="translate(616,10)"><title>Chart context menu</title><rect fill="#ffffff" x="0.5" y="0.5" width="24" height="22" rx="2" ry="2" stroke="none" stroke-width="1"></rect><path fill="#666666" d="M 6 6.5 L 20 6.5 M 6 11.5 L 20 11.5 M 6 16.5 L 20 16.5" data-z-index="1" stroke="#666666" stroke-width="3"></path><text font-family='Roboto-Regular,Roboto' x="0" data-z-index="1" y="15.5" style="color: rgb(51, 51, 51); font-weight: normal; fill: rgb(51, 51, 51);"></text></g></g><text font-family='Roboto-Regular,Roboto' x="325" text-anchor="middle" data-z-index="4" style="color: rgb(51, 51, 51); font-size: 18px; fill: rgb(51, 51, 51);" y="24" aria-hidden="true">Lorem ipsum dolor</text><text font-family='Roboto-Regular,Roboto' x="325" text-anchor="middle" data-z-index="4" style="color: rgb(102, 102, 102); fill: rgb(102, 102, 102);" y="46" aria-hidden="true"></text><text font-family='Roboto-Regular,Roboto' x="10" text-anchor="start" data-z-index="4" style="color: rgb(102, 102, 102); fill: rgb(102, 102, 102);" y="397" aria-hidden="true"></text><g data-z-index="7" aria-hidden="true"><text font-family='Roboto-Regular,Roboto' x="103.6" style="color: rgb(102, 102, 102); cursor: default; font-size: 11px; fill: rgb(102, 102, 102);" text-anchor="middle" transform="translate(0,0)" y="404" opacity="1"></text><text font-family='Roboto-Regular,Roboto' x="222.79999999999998" style="color: rgb(102, 102, 102); cursor: default; font-size: 11px; fill: rgb(102, 102, 102);" text-anchor="middle" transform="translate(0,0)" y="404" opacity="1"></text><text font-family='Roboto-Regular,Roboto' x="342" style="color: rgb(102, 102, 102); cursor: default; font-size: 11px; fill: rgb(102, 102, 102);" text-anchor="middle" transform="translate(0,0)" y="404" opacity="1"></text><text font-family='Roboto-Regular,Roboto' x="461.19999999999993" style="color: rgb(102, 102, 102); cursor: default; font-size: 11px; fill: rgb(102, 102, 102);" text-anchor="middle" transform="translate(0,0)" y="404" opacity="1"></text><text font-family='Roboto-Regular,Roboto' x="580.4" style="color: rgb(102, 102, 102); cursor: default; font-size: 11px; fill: rgb(102, 102, 102);" text-anchor="middle" transform="translate(0,0)" y="404" opacity="1"></text></g><g data-z-index="7" aria-hidden="true"><text font-family='Roboto-Regular,Roboto' x="29" style="color: rgb(102, 102, 102); cursor: default; font-size: 11px; fill: rgb(102, 102, 102);" text-anchor="end" transform="translate(0,0)" y="322" opacity="1">20</text><text font-family='Roboto-Regular,Roboto' x="29" style="color: rgb(102, 102, 102); cursor: default; font-size: 11px; fill: rgb(102, 102, 102);" text-anchor="end" transform="translate(0,0)" y="254" opacity="1">40</text><text font-family='Roboto-Regular,Roboto' x="29" style="color: rgb(102, 102, 102); cursor: default; font-size: 11px; fill: rgb(102, 102, 102);" text-anchor="end" transform="translate(0,0)" y="187" opacity="1">60</text><text font-family='Roboto-Regular,Roboto' x="29" style="color: rgb(102, 102, 102); cursor: default; font-size: 11px; fill: rgb(102, 102, 102);" text-anchor="end" transform="translate(0,0)" y="119" opacity="1">80</text><text font-family='Roboto-Regular,Roboto' x="29" style="color: rgb(102, 102, 102); cursor: default; font-size: 11px; fill: rgb(102, 102, 102);" text-anchor="end" transform="translate(0,0)" y="390" opacity="1">0</text><text font-family='Roboto-Regular,Roboto' x="29" style="color: rgb(102, 102, 102); cursor: default; font-size: 11px; fill: rgb(102, 102, 102);" text-anchor="end" transform="translate(0,0)" y="52" opacity="1">100</text></g></svg>