<?xml version="1.0" encoding="UTF-8" standalone="no"?><!DOCTYPE svg PUBLIC "-//W3C//DTD SVG 1.1//EN" "http://www.w3.org/Graphics/SVG/1.1/DTD/svg11.dtd"><svg width="100%" height="100%" viewBox="0 0 650 400" version="1.1" xmlns="http://www.w3.org/2000/svg" xmlns:xlink="http://www.w3.org/1999/xlink" xml:space="preserve" xmlns:serif="http://www.serif.com/" style="fill-rule:evenodd;clip-rule:evenodd;"><rect x="68" y="47" width="514" height="317" style="fill:none;"/><rect x="68" y="47" width="514" height="317" style="fill:none;"/><g><path d="M68,364.5l514,0" style="fill:none;fill-rule:nonzero;stroke:#e6e6e6;stroke-width:1px;"/><path d="M68,301.5l514,0" style="fill:none;fill-rule:nonzero;stroke:#e6e6e6;stroke-width:1px;"/><path d="M68,237.5l514,0" style="fill:none;fill-rule:nonzero;stroke:#e6e6e6;stroke-width:1px;"/><path d="M68,174.5l514,0" style="fill:none;fill-rule:nonzero;stroke:#e6e6e6;stroke-width:1px;"/><path d="M68,110.5l514,0" style="fill:none;fill-rule:nonzero;stroke:#e6e6e6;stroke-width:1px;"/></g><g><path d="M68,364.5l514,0" style="fill:none;fill-rule:nonzero;stroke:#191919;stroke-width:1px;"/><path d="M68,301.5l514,0" style="fill:none;fill-rule:nonzero;stroke:#191919;stroke-width:1px;"/><path d="M68,237.5l514,0" style="fill:none;fill-rule:nonzero;stroke:#191919;stroke-width:1px;"/><path d="M68,174.5l514,0" style="fill:none;fill-rule:nonzero;stroke:#191919;stroke-width:1px;"/><path d="M68,110.5l514,0" style="fill:none;fill-rule:nonzero;stroke:#191919;stroke-width:1px;"/></g><g><path d="M68,364.5l514,0" style="fill:none;fill-rule:nonzero;stroke:#ccd6eb;stroke-width:1px;"/></g><g><g><rect x="95" y="156" width="31" height="149" style="fill:#ff8527;"/><rect x="181" y="183" width="31" height="115" style="fill:#ff8527;"/><rect x="267" y="129" width="31" height="111" style="fill:#ff8527;"/><rect x="352" y="265" width="31" height="41" style="fill:#ff8527;"/><rect x="438" y="162" width="31" height="60" style="fill:#ff8527;"/><rect x="524" y="208" width="31" height="97" style="fill:#ff8527;"/></g><g><rect x="95" y="305" width="31" height="60" style="fill:#4f3cff;"/><rect x="181" y="298" width="31" height="67" style="fill:#4f3cff;"/><rect x="267" y="240" width="31" height="125" style="fill:#4f3cff;"/><rect x="352" y="306" width="31" height="59" style="fill:#4f3cff;"/><rect x="438" y="222" width="31" height="143" style="fill:#4f3cff;"/><rect x="524" y="305" width="31" height="60" style="fill:#4f3cff;"/></g><g><path d="M110.833,100.89c0,0 51.4,123.63 85.667,123.63c34.267,0 51.4,-28.53 85.667,-28.53c34.266,0 51.4,31.7 85.666,44.38c34.267,12.68 51.4,15.85 85.667,19.02c34.267,3.17 85.667,3.17 85.667,3.17" style="fill:none;fill-rule:nonzero;stroke:#fff;stroke-width:2px;stroke-linecap:round;stroke-linejoin:round;"/><path d="M110.833,100.89c0,0 51.4,123.63 85.667,123.63c34.267,0 51.4,-28.53 85.667,-28.53c34.266,0 51.4,31.7 85.666,44.38c34.267,12.68 51.4,15.85 85.667,19.02c34.267,3.17 85.667,3.17 85.667,3.17" style="fill:none;fill-rule:nonzero;stroke:#fff;stroke-opacity:0;stroke-width:22px;stroke-linecap:round;stroke-linejoin:round;"/></g><g><path d="M110,104.89c-2.194,0 -4,-1.806 -4,-4c0,-2.194 1.806,-4 4,-4c2.194,0 4,1.806 4,4c0,2.193 -1.803,3.998 -3.996,4l-0.004,0Z" style="fill:#fff;fill-rule:nonzero;stroke:#fff;stroke-width:1px;stroke-linejoin:round;stroke-miterlimit:2;"/><path d="M196,228.52c-2.194,0 -4,-1.806 -4,-4c0,-2.194 1.806,-4 4,-4c2.194,0 4,1.806 4,4c0,2.193 -1.803,3.998 -3.996,4l-0.004,0Z" style="fill:#fff;fill-rule:nonzero;stroke:#fff;stroke-width:1px;stroke-linejoin:round;stroke-miterlimit:2;"/><path d="M282,199.99c-2.194,0 -4,-1.806 -4,-4c0,-2.194 1.806,-4 4,-4c2.194,0 4,1.806 4,4c0,2.193 -1.803,3.998 -3.996,4l-0.004,0Z" style="fill:#fff;fill-rule:nonzero;stroke:#fff;stroke-width:1px;stroke-linejoin:round;stroke-miterlimit:2;"/><path d="M367,244.37c-2.194,0 -4,-1.806 -4,-4c0,-2.194 1.806,-4 4,-4c2.194,0 4,1.806 4,4c0,2.193 -1.803,3.998 -3.996,4l-0.004,0Z" style="fill:#fff;fill-rule:nonzero;stroke:#fff;stroke-width:1px;stroke-linejoin:round;stroke-miterlimit:2;"/><path d="M453,263.39c-2.194,0 -4,-1.806 -4,-4c0,-2.194 1.806,-4 4,-4c2.194,0 4,1.806 4,4c0,2.193 -1.803,3.998 -3.996,4l-0.004,0Z" style="fill:#fff;fill-rule:nonzero;stroke:#fff;stroke-width:1px;stroke-linejoin:round;stroke-miterlimit:2;"/><path d="M539,266.56c-2.194,0 -4,-1.806 -4,-4c0,-2.194 1.806,-4 4,-4c2.194,0 4,1.806 4,4c0,2.193 -1.803,3.998 -3.996,4l-0.004,0Z" style="fill:#fff;fill-rule:nonzero;stroke:#fff;stroke-width:1px;stroke-linejoin:round;stroke-miterlimit:2;"/></g></g><g><g><text x="238.375px" y="67.038px" style="font-size:18px;fill:#fff;">Lorem ipsum dolor sit</text></g></g></svg>